<?xml version="1.0" encoding="iso-8859-1"?>
<!-- Generator: Adobe Illustrator 20.1.0, SVG Export Plug-In . SVG Version: 6.00 Build 0)  -->
<svg xmlns="http://www.w3.org/2000/svg" xmlns:xlink="http://www.w3.org/1999/xlink" version="1.1" id="&#1057;&#1083;&#1086;&#1081;_1" x="0px" y="0px" viewBox="0 0 64 64" style="enable-background:new 0 0 64 64;" xml:space="preserve">
<linearGradient id="SVGID_1__48191" gradientUnits="userSpaceOnUse" x1="32" y1="5.3333" x2="32" y2="59.2633" spreadMethod="reflect">
	<stop offset="0" style="stop-color:#1A6DFF"/>
	<stop offset="1" style="stop-color:#C822FF"/>
</linearGradient>
<path style="fill:url(#SVGID_1__48191);" d="M50.535,15.121l-7.656-7.657C41.932,6.521,40.677,6,39.342,6H17c-2.757,0-5,2.243-5,5v42  c0,2.757,2.243,5,5,5h30c2.757,0,5-2.243,5-5V18.657C52,17.321,51.479,16.065,50.535,15.121z M48.586,16H45c-1.654,0-3-1.346-3-3  V9.414L48.586,16z M50,53c0,1.654-1.346,3-3,3H17c-1.654,0-3-1.346-3-3V11c0-1.654,1.345-3,3-3h22.343C39.567,8,40,8.03,40,8.078V13  c0,2.757,2.243,5,5,5h4.922C49.969,18.214,50,18.433,50,18.657V53z"/>
<linearGradient id="SVGID_2__48191" gradientUnits="userSpaceOnUse" x1="32" y1="5.3333" x2="32" y2="59.2633" spreadMethod="reflect">
	<stop offset="0" style="stop-color:#1A6DFF"/>
	<stop offset="1" style="stop-color:#C822FF"/>
</linearGradient>
<rect x="21" y="45" style="fill:url(#SVGID_2__48191);" width="22" height="2"/>
<linearGradient id="SVGID_3__48191" gradientUnits="userSpaceOnUse" x1="32" y1="5.3333" x2="32" y2="59.2633" spreadMethod="reflect">
	<stop offset="0" style="stop-color:#1A6DFF"/>
	<stop offset="1" style="stop-color:#C822FF"/>
</linearGradient>
<rect x="25" y="49" style="fill:url(#SVGID_3__48191);" width="14" height="2"/>
<linearGradient id="SVGID_4__48191" gradientUnits="userSpaceOnUse" x1="32.0274" y1="16.5" x2="32.0274" y2="42.1959" spreadMethod="reflect">
	<stop offset="0" style="stop-color:#6DC7FF"/>
	<stop offset="1" style="stop-color:#E6ABFF"/>
</linearGradient>
<path style="fill:url(#SVGID_4__48191);" d="M22.187,42.355c-0.326,0-0.654-0.078-0.963-0.237c-0.896-0.462-1.356-1.458-1.174-2.539  c0.217-1.287,1.407-3.269,6.032-5.04c2.216-4.056,3.542-8.009,4.313-10.928c-0.646-1.725-1.031-3.329-1.031-4.611  c0-1.107,1.084-2.154,2.23-2.154c0.536,0,1.009,0.23,1.332,0.65c0.29,0.377,0.438,0.883,0.438,1.504l-0.007,0.113  c-0.021,0.183-0.224,1.879-0.865,4.45c1.178,2.89,3.119,6.143,5.078,8.518c1.604,0.279,5.2,1.069,6.178,2.655  c0.305,0.493,0.375,1.036,0.203,1.57l-0.083,0.256l-0.2,0.181c-0.499,0.45-1.599,1.09-3.33,0.316  c-1.128-0.502-2.397-1.583-3.661-3.002c-4.009,0.596-7.006,1.344-9.209,2.122c-1.041,1.822-2.262,3.662-3.688,5.445l-0.074,0.082  C23.281,42.133,22.738,42.355,22.187,42.355z M24.206,37.651c-1.463,0.869-2.086,1.682-2.184,2.261  c-0.042,0.25,0.038,0.387,0.119,0.429c0.021,0.012,0.057,0.029,0.122-0.021C22.962,39.443,23.608,38.551,24.206,37.651z   M40.646,34.967c0.173,0.104,0.342,0.192,0.506,0.266c0.15,0.067,0.282,0.113,0.398,0.144  C41.313,35.242,41.006,35.104,40.646,34.967z M31.665,26.503c-0.672,2.137-1.593,4.585-2.849,7.137  c1.765-0.501,3.873-0.968,6.396-1.378C33.903,30.521,32.663,28.507,31.665,26.503z"/>
</svg>
